<?xml version="1.0" encoding="UTF-8"?>
<svg xmlns="http://www.w3.org/2000/svg" viewBox="0 0 16 16">
    <path style="line-height:normal;text-indent:0;text-align:start;text-decoration-line:none;text-decoration-style:solid;text-decoration-color:#000;text-transform:none;block-progression:tb;isolation:auto;mix-blend-mode:normal" d="M 3.6328125 3.0292969 C 2.7548481 3.0292969 1.9392856 3.4900971 1.4882812 4.2421875 L 1.4589844 4.2910156 L 1.4414062 4.3457031 C 1.4414062 4.3457031 1.0843747 5.4427354 0.7265625 6.75 C 0.36875028 8.0572652 -7.4014868e-17 9.5335209 0 10.5 C 0 11.874985 1.1250151 13 2.5 13 C 3.7125352 13 4.7285305 12.128544 4.9511719 10.976562 L 4.9375 11.035156 C 5.0007194 10.837452 5.0562841 10.608472 5.1074219 10.390625 C 5.1615633 10.158736 5.3607475 10 5.5957031 10 L 10.404297 10 C 10.640747 10 10.838278 10.158058 10.892578 10.390625 C 10.943718 10.608472 10.999281 10.837452 11.0625 11.035156 L 11.048828 10.976562 C 11.271464 12.129775 12.288562 13 13.5 13 C 14.874985 13 16 11.874985 16 10.5 C 16 9.5335209 15.63125 8.0572646 15.273438 6.75 C 14.915624 5.4427354 14.558594 4.3457031 14.558594 4.3457031 L 14.541016 4.2910156 L 14.511719 4.2421875 C 14.060719 3.4900965 13.245152 3.0292969 12.367188 3.0292969 L 3.6328125 3.0292969 z M 3.6328125 4.0292969 L 12.367188 4.0292969 C 12.887094 4.0292969 13.36143 4.306491 13.634766 4.7460938 C 13.660486 4.8254547 13.971542 5.7842104 14.308594 7.015625 C 14.659282 8.2968604 15 9.8204791 15 10.5 C 15 11.335015 14.335015 12 13.5 12 C 12.765438 12 12.162659 11.477893 12.029297 10.787109 L 12.023438 10.757812 L 12.015625 10.730469 C 11.968995 10.584643 11.913971 10.371575 11.865234 10.164062 L 11.865234 10.162109 C 11.706944 9.4876016 11.101264 9 10.404297 9 L 5.5957031 9 C 4.8986588 9 4.2926242 9.4879519 4.1347656 10.164062 C 4.0860287 10.371575 4.0310054 10.584643 3.984375 10.730469 L 3.9765625 10.757812 L 3.9707031 10.787109 C 3.8373426 11.477128 3.2354648 12 2.5 12 C 1.6649849 12 1 11.335015 1 10.5 C 1 9.8204791 1.3407186 8.2968604 1.6914062 7.015625 C 2.0284575 5.7842104 2.3395087 4.8254545 2.3652344 4.7460938 C 2.6385704 4.306491 3.1129064 4.0292969 3.6328125 4.0292969 z M 4 5 L 4 6 L 3 6 L 3 7 L 4 7 L 4 8 L 5 8 L 5 7 L 6 7 L 6 6 L 5 6 L 5 5 L 4 5 z M 11.5 5 A 0.5 0.5 0 0 0 11 5.5 A 0.5 0.5 0 0 0 11.5 6 A 0.5 0.5 0 0 0 12 5.5 A 0.5 0.5 0 0 0 11.5 5 z M 10.5 6 A 0.5 0.5 0 0 0 10 6.5 A 0.5 0.5 0 0 0 10.5 7 A 0.5 0.5 0 0 0 11 6.5 A 0.5 0.5 0 0 0 10.5 6 z M 12.5 6 A 0.5 0.5 0 0 0 12 6.5 A 0.5 0.5 0 0 0 12.5 7 A 0.5 0.5 0 0 0 13 6.5 A 0.5 0.5 0 0 0 12.5 6 z M 11.5 7 A 0.5 0.5 0 0 0 11 7.5 A 0.5 0.5 0 0 0 11.5 8 A 0.5 0.5 0 0 0 12 7.5 A 0.5 0.5 0 0 0 11.5 7 z" font-weight="400" font-family="sans-serif" white-space="normal" overflow="visible"/>
</svg>